<svg width="28" height="23" viewBox="0 0 28 23" fill="none" xmlns="http://www.w3.org/2000/svg">
<path d="M27.5493 2.95725C26.5314 3.40751 25.4519 3.70322 24.3467 3.83458C25.5117 3.13783 26.3836 2.04127 26.8 0.749251C25.7067 1.39992 24.508 1.85592 23.2587 2.10258C22.4195 1.20469 21.3071 0.609202 20.0946 0.408697C18.8821 0.208193 17.6372 0.413906 16.5537 0.993855C15.4701 1.5738 14.6085 2.4955 14.1028 3.61564C13.5971 4.73579 13.4757 5.99162 13.7573 7.18792C11.5401 7.07679 9.3711 6.50062 7.39104 5.4968C5.41098 4.49299 3.66416 3.08398 2.26399 1.36125C1.76838 2.21252 1.50793 3.18022 1.50933 4.16525C1.50933 6.09858 2.49333 7.80658 3.98933 8.80658C3.10401 8.77871 2.23817 8.53963 1.46399 8.10925V8.17858C1.46426 9.46619 1.90982 10.7141 2.72512 11.7107C3.54043 12.7073 4.6753 13.3912 5.93733 13.6466C5.11548 13.8693 4.25374 13.9021 3.41733 13.7426C3.77315 14.8509 4.46667 15.8202 5.40078 16.5147C6.3349 17.2093 7.46283 17.5943 8.62666 17.6159C7.46997 18.5244 6.14556 19.1959 4.72917 19.5921C3.31277 19.9884 1.83216 20.1016 0.371994 19.9253C2.92092 21.5645 5.88812 22.4347 8.91866 22.4319C19.176 22.4319 24.7853 13.9346 24.7853 6.56525C24.7853 6.32525 24.7787 6.08258 24.768 5.84525C25.8598 5.05614 26.8021 4.07861 27.5507 2.95858L27.5493 2.95725Z" fill="#5243C2"/>
</svg>
